HIERARCHY
ROOT Hips
{
	OFFSET 0.000000 100.481300 0.000000
	CHANNELS 6 Xposition Yposition Zposition Xrotation Yrotation Zrotation 
	JOINT Spine
	{
		OFFSET -0.279200 12.230698 -2.892100
		CHANNELS 3 Xrotation Yrotation Zrotation
		JOINT Spine1
		{
			OFFSET -0.232667 10.192268 -1.242267
			CHANNELS 3 Xrotation Yrotation Zrotation
			JOINT Spine1_split
			{
				OFFSET -0.232667 10.192268 -1.242267
				CHANNELS 3 Xrotation Yrotation Zrotation
				JOINT Spine2
				{
					OFFSET -0.232667 10.192268 -1.242267
					CHANNELS 3 Xrotation Yrotation Zrotation
					JOINT Neck
					{
						OFFSET -0.418800 17.814194 8.416900
						CHANNELS 3 Xrotation Yrotation Zrotation
						JOINT Head
						{
							OFFSET 0.000000 7.031097 3.806800
							CHANNELS 3 Xrotation Yrotation Zrotation
							JOINT HeadTop_End
							{
								OFFSET 0.000000 24.646606 12.978600
								CHANNELS 3 Xrotation Yrotation Zrotation
								End Site
								{
									OFFSET 0.000000 0.000000 0.000000
								}
							}
						}
					}
					JOINT LeftShoulder
					{
						OFFSET 8.476499 7.247704 -3.868750
						CHANNELS 3 Xrotation Yrotation Zrotation
						JOINT LeftShoulder_split
						{
							OFFSET 8.476499 7.247704 -3.868750
							CHANNELS 3 Xrotation Yrotation Zrotation
							JOINT LeftArm
							{
								OFFSET 9.308998 -2.777710 0.208600
								CHANNELS 3 Xrotation Yrotation Zrotation
								JOINT LeftForeArm
								{
									OFFSET 29.972298 0.000000 0.000000
									CHANNELS 3 Xrotation Yrotation Zrotation
									JOINT LeftHand
									{
										OFFSET 26.026505 0.000000 0.000000
										CHANNELS 3 Xrotation Yrotation Zrotation
										JOINT LeftHandThumb1
										{
											OFFSET 12.240501 -7.147949 9.207150
											CHANNELS 3 Xrotation Yrotation Zrotation
											JOINT LeftHandThumb2
											{
												OFFSET 4.138618 -2.389435 2.389433
												CHANNELS 3 Xrotation Yrotation Zrotation
												JOINT LeftHandThumb3
												{
													OFFSET 2.726913 -1.574387 1.574386
													CHANNELS 3 Xrotation Yrotation Zrotation
													JOINT LeftHandThumb4
													{
														OFFSET 3.941010 -2.275345 2.275342
														CHANNELS 3 Xrotation Yrotation Zrotation
														End Site
														{
															OFFSET 0.000000 0.000000 0.000000
														}
													}
												}
											}
										}
										JOINT LeftHandIndex1
										{
											OFFSET 24.424698 -1.985611 5.953459
											CHANNELS 3 Xrotation Yrotation Zrotation
											JOINT LeftHandIndex2
											{
												OFFSET 6.426697 0.000000 0.000000
												CHANNELS 3 Xrotation Yrotation Zrotation
												JOINT LeftHandIndex3
												{
													OFFSET 5.337898 0.000000 0.000000
													CHANNELS 3 Xrotation Yrotation Zrotation
													JOINT LeftHandIndex4
													{
														OFFSET 4.409401 0.000000 0.000000
														CHANNELS 3 Xrotation Yrotation Zrotation
														End Site
														{
															OFFSET 0.000000 0.000000 0.000000
														}
													}
												}
											}
										}
										JOINT LeftHandMiddle1
										{
											OFFSET 23.810104 0.000000 0.000000
											CHANNELS 3 Xrotation Yrotation Zrotation
											JOINT LeftHandMiddle2
											{
												OFFSET 7.176498 0.000000 0.000000
												CHANNELS 3 Xrotation Yrotation Zrotation
												JOINT LeftHandMiddle3
												{
													OFFSET 6.774902 0.000000 0.000000
													CHANNELS 3 Xrotation Yrotation Zrotation
													JOINT LeftHandMiddle4
													{
														OFFSET 5.403328 0.000000 0.000000
														CHANNELS 3 Xrotation Yrotation Zrotation
														End Site
														{
															OFFSET 0.000000 0.000000 0.000000
														}
													}
												}
											}
										}
										JOINT LeftHandRing1
										{
											OFFSET 22.908401 -0.839279 -6.020567
											CHANNELS 3 Xrotation Yrotation Zrotation
											JOINT LeftHandRing2
											{
												OFFSET 6.337502 0.000000 0.000000
												CHANNELS 3 Xrotation Yrotation Zrotation
												JOINT LeftHandRing3
												{
													OFFSET 5.779297 0.000000 0.000000
													CHANNELS 3 Xrotation Yrotation Zrotation
													JOINT LeftHandRing4
													{
														OFFSET 4.965698 0.000000 0.000000
														CHANNELS 3 Xrotation Yrotation Zrotation
														End Site
														{
															OFFSET 0.000000 0.000000 0.000000
														}
													}
												}
											}
										}
										JOINT LeftHandPinky1
										{
											OFFSET 20.037003 -1.530319 -10.950146
											CHANNELS 3 Xrotation Yrotation Zrotation
											JOINT LeftHandPinky2
											{
												OFFSET 5.254700 0.000000 0.000000
												CHANNELS 3 Xrotation Yrotation Zrotation
												JOINT LeftHandPinky3
												{
													OFFSET 4.810204 0.000000 0.000000
													CHANNELS 3 Xrotation Yrotation Zrotation
													JOINT LeftHandPinky4
													{
														OFFSET 3.647202 0.000000 0.000000
														CHANNELS 3 Xrotation Yrotation Zrotation
														End Site
														{
															OFFSET 0.000000 0.000000 0.000000
														}
													}
												}
											}
										}
									}
								}
							}
						}
					}
					JOINT RightShoulder
					{
						OFFSET -7.570500 7.247704 -3.868750
						CHANNELS 3 Xrotation Yrotation Zrotation
						JOINT RightShoulder_split
						{
							OFFSET -7.570500 7.247704 -3.868750
							CHANNELS 3 Xrotation Yrotation Zrotation
							JOINT RightArm
							{
								OFFSET -9.308998 -2.777710 0.208500
								CHANNELS 3 Xrotation Yrotation Zrotation
								JOINT RightForeArm
								{
									OFFSET -29.972300 0.000000 0.000000
									CHANNELS 3 Xrotation Yrotation Zrotation
									JOINT RightHand
									{
										OFFSET -26.026505 0.000000 0.000000
										CHANNELS 3 Xrotation Yrotation Zrotation
										JOINT RightHandThumb1
										{
											OFFSET -12.240601 -7.148026 9.207092
											CHANNELS 3 Xrotation Yrotation Zrotation
											JOINT RightHandThumb2
											{
												OFFSET -4.138618 -2.389435 2.389433
												CHANNELS 3 Xrotation Yrotation Zrotation
												JOINT RightHandThumb3
												{
													OFFSET -2.726974 -1.574417 1.574421
													CHANNELS 3 Xrotation Yrotation Zrotation
													JOINT RightHandThumb4
													{
														OFFSET -3.941010 -2.275345 2.275343
														CHANNELS 3 Xrotation Yrotation Zrotation
														End Site
														{
															OFFSET 0.000000 0.000000 0.000000
														}
													}
												}
											}
										}
										JOINT RightHandIndex1
										{
											OFFSET -24.424698 -1.985657 5.953444
											CHANNELS 3 Xrotation Yrotation Zrotation
											JOINT RightHandIndex2
											{
												OFFSET -6.426697 0.000000 0.000000
												CHANNELS 3 Xrotation Yrotation Zrotation
												JOINT RightHandIndex3
												{
													OFFSET -5.337898 0.000000 0.000000
													CHANNELS 3 Xrotation Yrotation Zrotation
													JOINT RightHandIndex4
													{
														OFFSET -4.409401 0.000000 0.000000
														CHANNELS 3 Xrotation Yrotation Zrotation
														End Site
														{
															OFFSET 0.000000 0.000000 0.000000
														}
													}
												}
											}
										}
										JOINT RightHandMiddle1
										{
											OFFSET -23.810097 0.000000 0.000000
											CHANNELS 3 Xrotation Yrotation Zrotation
											JOINT RightHandMiddle2
											{
												OFFSET -7.176498 0.000000 0.000000
												CHANNELS 3 Xrotation Yrotation Zrotation
												JOINT RightHandMiddle3
												{
													OFFSET -6.774902 0.000000 0.000000
													CHANNELS 3 Xrotation Yrotation Zrotation
													JOINT RightHandMiddle4
													{
														OFFSET -5.403328 0.000000 0.000000
														CHANNELS 3 Xrotation Yrotation Zrotation
														End Site
														{
															OFFSET 0.000000 0.000000 0.000000
														}
													}
												}
											}
										}
										JOINT RightHandRing1
										{
											OFFSET -22.908302 -0.839325 -6.020576
											CHANNELS 3 Xrotation Yrotation Zrotation
											JOINT RightHandRing2
											{
												OFFSET -6.337502 0.000000 0.000000
												CHANNELS 3 Xrotation Yrotation Zrotation
												JOINT RightHandRing3
												{
													OFFSET -5.779297 0.000000 0.000000
													CHANNELS 3 Xrotation Yrotation Zrotation
													JOINT RightHandRing4
													{
														OFFSET -4.965698 0.000000 0.000000
														CHANNELS 3 Xrotation Yrotation Zrotation
														End Site
														{
															OFFSET 0.000000 0.000000 0.000000
														}
													}
												}
											}
										}
										JOINT RightHandPinky1
										{
											OFFSET -20.037003 -1.530334 -10.950259
											CHANNELS 3 Xrotation Yrotation Zrotation
											JOINT RightHandPinky2
											{
												OFFSET -5.254700 0.000000 0.000000
												CHANNELS 3 Xrotation Yrotation Zrotation
												JOINT RightHandPinky3
												{
													OFFSET -4.810204 0.000000 0.000000
													CHANNELS 3 Xrotation Yrotation Zrotation
													JOINT RightHandPinky4
													{
														OFFSET -3.647202 0.000000 0.000000
														CHANNELS 3 Xrotation Yrotation Zrotation
														End Site
														{
															OFFSET 0.000000 0.000000 0.000000
														}
													}
												}
											}
										}
									}
								}
							}
						}
					}
				}
			}
		}
	}
	JOINT LeftUpLeg
	{
		OFFSET 15.427100 -6.655098 0.678600
		CHANNELS 3 Xrotation Yrotation Zrotation
		JOINT LeftLeg
		{
			OFFSET 4.081073 -39.591068 13.024000
			CHANNELS 3 Xrotation Yrotation Zrotation
			JOINT LeftFoot
			{
				OFFSET -4.081074 -37.707932 -15.979700
				CHANNELS 3 Xrotation Yrotation Zrotation
				JOINT LeftToeBase
				{
					OFFSET 5.346399 -15.068900 20.645000
					CHANNELS 3 Xrotation Yrotation Zrotation
					JOINT LeftToe_End
					{
						OFFSET 2.754700 0.931300 11.300900
						CHANNELS 3 Xrotation Yrotation Zrotation
						End Site
						{
							OFFSET 0.000000 0.000000 0.000000
						}
					}
				}
			}
		}
	}
	JOINT RightUpLeg
	{
		OFFSET -15.569500 -6.655098 0.678600
		CHANNELS 3 Xrotation Yrotation Zrotation
		JOINT RightLeg
		{
			OFFSET -4.081825 -39.591045 13.023800
			CHANNELS 3 Xrotation Yrotation Zrotation
			JOINT RightFoot
			{
				OFFSET 4.081824 -37.707954 -15.979600
				CHANNELS 3 Xrotation Yrotation Zrotation
				JOINT RightToeBase
				{
					OFFSET -5.346400 -15.068900 20.645000
					CHANNELS 3 Xrotation Yrotation Zrotation
					JOINT RightToe_End
					{
						OFFSET -2.754700 0.931300 11.300900
						CHANNELS 3 Xrotation Yrotation Zrotation
						End Site
						{
							OFFSET 0.000000 0.000000 0.000000
						}
					}
				}
			}
		}
	}
}
MOTION
Frames: 4
Frame Time: 0.016667
-2.285014 74.128059 2.614777 19.450244 -44.020190 6.755576 0.834030 6.780849 -0.815947 -1.588676 4.492974 -2.192218 0.000000 0.000000 0.000000 -1.597448 -0.195616 1.993554 12.118093 6.829913 -4.433334 -0.737341 20.027400 8.229670 0.000001 0.000000 -0.000001 3.544242 4.756012 -11.623015 0.000000 0.000000 0.000000 -54.038821 -33.116421 -50.381528 0.000030 -81.882357 0.000049 -58.768361 25.992623 38.870327 -14.557447 10.837979 12.229967 0.749523 -4.257957 13.305474 -10.783708 -23.179377 -4.132412 0.000002 0.000000 -0.000001 -0.809527 2.578161 -31.496430 3.095894 5.163778 -61.866959 0.503787 2.378643 -23.913136 0.000000 0.000000 -0.000002 -2.430837 1.729224 -41.460928 2.952355 5.084726 -60.259925 1.321771 3.707980 -39.227839 0.000000 -0.000001 0.000003 -6.054111 -0.166600 -49.857577 3.046231 5.137034 -61.313952 0.351701 2.001102 -19.935123 0.000000 -0.000001 0.000002 -8.298292 -6.522675 -38.520150 2.848767 5.024400 -59.084408 0.876781 3.084710 -31.727503 0.000001 -0.000002 -0.000002 -14.733698 2.115974 -4.463086 0.000000 0.000000 0.000000 72.337523 138.834031 -52.653495 -0.000002 29.080698 0.000008 -49.752467 -7.371312 -31.498749 8.377145 -4.904135 11.021990 21.620197 -18.183878 -18.379202 -0.702905 -49.821217 -32.535169 -0.000001 0.000000 -0.000002 0.558939 -4.406589 25.436649 1.653031 -3.560339 49.799087 1.737712 -3.630062 51.149217 0.000000 0.000001 -0.000000 10.969820 -12.875579 52.800835 6.387591 -4.324423 111.833658 0.247365 -1.499123 18.739129 0.000001 -0.000001 0.000000 3.705088 -7.151326 57.622440 5.328202 -4.608677 98.293437 1.627337 -3.538506 49.383989 -0.000000 -0.000000 -0.000000 0.474826 -5.172984 58.987679 3.194324 -4.421936 71.674147 1.771410 -3.656888 51.679561 0.000000 0.000000 -0.000000 -75.114923 -11.617475 15.770442 46.243260 -7.690565 4.538722 22.637503 -1.771866 -14.304141 -0.796911 0.025167 -1.808766 -0.000000 0.000003 -0.000000 -29.797612 -6.383604 -20.010161 52.085943 -3.280892 6.721584 -21.599116 -24.367902 22.363344 -1.117560 0.000015 -0.000001 0.000000 -0.000000 -0.000000 
-2.413062 74.501251 -0.537642 20.326008 -44.005819 7.051277 1.051944 6.757940 -0.237254 -1.410115 4.462650 -2.203677 0.000000 0.000000 0.000000 -1.413471 -0.229860 1.985882 11.799608 6.804084 -4.313539 -1.333359 19.778527 8.281247 -0.000002 -0.000000 -0.000000 3.460878 4.416668 -11.409039 0.000000 0.000000 0.000000 -54.824617 -33.117760 -50.523415 -0.000043 -81.497039 -0.000036 -58.132341 25.445086 38.284003 -14.557445 10.837978 12.229964 0.749526 -4.257956 13.305474 -10.783711 -23.179374 -4.132411 -0.000000 -0.000000 -0.000002 -0.809530 2.578162 -31.496437 3.095890 5.163778 -61.866959 0.503787 2.378645 -23.913131 -0.000000 0.000000 -0.000002 -2.430839 1.729224 -41.460928 2.952355 5.084726 -60.259925 1.321770 3.707981 -39.227843 0.000000 0.000001 0.000003 -6.054115 -0.166598 -49.857581 3.046232 5.137031 -61.313952 0.351700 2.001103 -19.935125 -0.000001 0.000000 0.000001 -8.298294 -6.522673 -38.520150 2.848764 5.024399 -59.084408 0.876781 3.084710 -31.727506 -0.000000 0.000001 0.000000 -14.724954 2.110613 -4.402641 0.000000 0.000000 0.000000 72.361995 139.310587 -53.074610 -0.000017 28.936923 0.000020 -48.762442 -6.817473 -31.328575 8.377144 -4.904134 11.021990 21.620204 -18.183878 -18.379204 -0.702905 -49.821213 -32.535162 0.000001 0.000001 -0.000001 0.558939 -4.406589 25.436651 1.653031 -3.560339 49.799083 1.737712 -3.630062 51.149217 0.000000 0.000000 -0.000002 10.969819 -12.875577 52.800842 6.387592 -4.324425 111.833658 0.247368 -1.499122 18.739129 -0.000002 0.000001 0.000000 3.705088 -7.151324 57.622440 5.328202 -4.608679 98.293430 1.627334 -3.538508 49.383992 0.000001 0.000000 -0.000001 0.474826 -5.172983 58.987679 3.194323 -4.421935 71.674147 1.771410 -3.656887 51.679564 -0.000001 0.000000 -0.000002 -76.820524 -8.649457 13.430050 52.934253 -7.937862 2.787850 17.166852 -1.437507 -15.348784 -4.333401 -0.230057 3.032943 -0.000000 -0.000001 -0.000000 -32.552166 -6.539964 -18.186845 53.268167 -3.739614 7.960467 -22.058437 -24.296993 19.196086 -2.251969 -0.000019 -0.000002 -0.000000 0.000000 0.000000 
-2.525196 75.129677 -3.829714 21.616242 -44.546531 7.628336 1.133165 7.116986 0.314957 -1.310869 4.621461 -2.233292 0.000000 0.000000 0.000000 -1.314410 -0.079132 1.955556 11.539372 6.719167 -4.205099 -1.771497 19.427327 8.399849 0.000000 0.000000 -0.000000 3.451688 4.257295 -11.406562 0.000000 0.000000 0.000000 -55.761565 -33.679332 -50.844888 0.000348 -80.674171 0.000348 -57.419297 24.773817 37.437978 -14.557447 10.837978 12.229964 0.749525 -4.257955 13.305473 -10.783709 -23.179376 -4.132411 -0.000000 0.000001 -0.000000 -0.809529 2.578162 -31.496437 3.095890 5.163778 -61.866959 0.503787 2.378643 -23.913136 -0.000000 -0.000001 -0.000000 -2.430839 1.729224 -41.460932 2.952356 5.084726 -60.259925 1.321769 3.707982 -39.227839 -0.000000 0.000001 -0.000000 -6.054114 -0.166598 -49.857577 3.046231 5.137033 -61.313952 0.351700 2.001101 -19.935126 0.000001 -0.000001 -0.000000 -8.298296 -6.522673 -38.520153 2.848764 5.024393 -59.084408 0.876780 3.084710 -31.727496 -0.000001 -0.000000 -0.000000 -14.702144 2.142266 -4.298178 0.000000 0.000000 0.000000 72.738666 139.648982 -53.739020 -0.000003 28.982002 0.000007 -47.783426 -6.248426 -31.304161 8.377144 -4.904133 11.021990 21.620202 -18.183878 -18.379202 -0.702900 -49.821217 -32.535162 -0.000003 0.000000 -0.000001 0.558939 -4.406588 25.436656 1.653031 -3.560339 49.799090 1.737713 -3.630062 51.149217 0.000000 0.000000 -0.000002 10.969820 -12.875578 52.800842 6.387590 -4.324424 111.833658 0.247366 -1.499123 18.739128 -0.000001 0.000000 0.000000 3.705088 -7.151325 57.622440 5.328202 -4.608679 98.293430 1.627337 -3.538507 49.383989 0.000001 -0.000000 -0.000000 0.474826 -5.172983 58.987679 3.194324 -4.421935 71.674147 1.771409 -3.656887 51.679561 0.000001 0.000000 -0.000001 -77.194477 -4.944724 10.857111 58.711227 -7.301654 1.891798 10.850491 -2.790651 -14.460482 -6.333869 -0.484693 4.358305 0.000000 -0.000004 0.000001 -35.670123 -7.100328 -16.413633 53.811505 -4.242122 9.333681 -21.854457 -22.817589 15.682832 -4.032534 0.000024 0.000007 -0.000000 0.000000 -0.000000 
-2.636958 75.846611 -7.254265 23.298848 -45.586691 8.473281 1.078524 7.805852 0.833105 -1.289594 4.928865 -2.265302 0.000000 0.000000 0.000000 -1.295695 0.217599 1.919089 11.325051 6.588895 -4.114613 -2.085919 19.014982 8.543325 -0.000000 0.000000 -0.000001 3.505657 4.264408 -11.583826 0.000000 0.000000 0.000000 -56.751854 -34.575500 -51.320856 -0.000164 -79.627609 -0.000171 -56.773222 24.062581 36.543349 -14.557450 10.837979 12.229966 0.749526 -4.257955 13.305472 -10.783708 -23.179372 -4.132411 0.000001 0.000001 -0.000000 -0.809532 2.578162 -31.496437 3.095890 5.163778 -61.866966 0.503788 2.378644 -23.913138 0.000000 -0.000000 -0.000004 -2.430840 1.729225 -41.460928 2.952354 5.084726 -60.259931 1.321770 3.707982 -39.227843 -0.000000 0.000000 -0.000002 -6.054117 -0.166597 -49.857577 3.046232 5.137032 -61.313952 0.351700 2.001102 -19.935126 0.000001 -0.000000 0.000000 -8.298295 -6.522672 -38.520150 2.848765 5.024399 -59.084408 0.876781 3.084710 -31.727499 0.000000 -0.000000 0.000001 -14.671339 2.216729 -4.184591 0.000000 0.000000 0.000000 73.273716 139.812934 -54.505377 -0.000008 29.166158 0.000005 -46.933542 -5.789921 -31.371776 8.377144 -4.904134 11.021993 21.620201 -18.183876 -18.379201 -0.702898 -49.821217 -32.535159 -0.000000 -0.000000 -0.000000 0.558939 -4.406589 25.436652 1.653031 -3.560338 49.799083 1.737713 -3.630062 51.149224 0.000000 -0.000000 0.000001 10.969819 -12.875579 52.800842 6.387590 -4.324425 111.833658 0.247366 -1.499124 18.739129 -0.000000 -0.000000 -0.000000 3.705087 -7.151325 57.622440 5.328202 -4.608677 98.293437 1.627337 -3.538507 49.383989 -0.000001 -0.000000 -0.000000 0.474826 -5.172983 58.987679 3.194324 -4.421935 71.674147 1.771409 -3.656887 51.679561 0.000001 0.000000 -0.000001 -76.470347 -1.339506 8.679103 62.984296 -5.542097 1.337758 5.536274 -6.859128 -13.090449 -6.678839 -0.532281 4.535951 -0.000000 -0.000001 0.000001 -38.795201 -8.149339 -14.721829 53.852463 -5.303675 10.651892 -21.103172 -19.276621 12.535856 -5.043918 -0.000007 -0.000007 -0.000000 0.000000 0.000000 
